<svg xmlns="http://www.w3.org/2000/svg" viewBox="0 0 80 80"><g transform="translate(5,8)">
    <circle cx="33" cy="12" r="3.2" fill="#1d6fbf"/><circle cx="43" cy="15" r="2.8" fill="#1878b8"/>
    <circle cx="50" cy="23" r="2.8" fill="#1282a8"/><circle cx="53" cy="33" r="3.2" fill="#0d8c98"/>
    <circle cx="50" cy="43" r="2.8" fill="#0a9680"/><circle cx="43" cy="50" r="2.8" fill="#12a068"/>
    <circle cx="33" cy="53" r="3.2" fill="#16a34a"/><circle cx="23" cy="50" r="2.8" fill="#15a255"/>
    <circle cx="16" cy="43" r="2.8" fill="#0e9c70"/><circle cx="13" cy="33" r="3.2" fill="#0c9688"/>
    <circle cx="16" cy="23" r="2.8" fill="#128aa0"/><circle cx="23" cy="15" r="2.8" fill="#1880b4"/>
    <circle cx="33" cy="22" r="2.2" fill="#1d6fbf" opacity="0.6"/>
    <circle cx="40" cy="25" r="2.0" fill="#0f8898" opacity="0.6"/>
    <circle cx="44" cy="33" r="2.2" fill="#0a9878" opacity="0.6"/>
    <circle cx="40" cy="41" r="2.0" fill="#14a25a" opacity="0.6"/>
    <circle cx="33" cy="44" r="2.2" fill="#16a34a" opacity="0.6"/>
    <circle cx="26" cy="41" r="2.0" fill="#12a062" opacity="0.6"/>
    <circle cx="22" cy="33" r="2.2" fill="#0c9282" opacity="0.6"/>
    <circle cx="26" cy="25" r="2.0" fill="#158aaa" opacity="0.6"/>
    <circle cx="33" cy="33" r="2.0" fill="#1d6fbf" opacity="0.3"/>
  </g></svg>